# xmcd CD database file
#
# Track frame offsets:
#	150
#	12115
#	21190
#	33790
#	53662
#	69412
#	77737
#	88762
#	101587
#	113060
#	126410
#	137960
#	148085
#	157759
#
# Disc length: 2243 seconds
#
# Revision: 0
# Processed by: cddbd v1.4PL0 Copyright (c) Steve Scherf et al.
# Submitted via: CDex 1.50Beta7
#
DISCID=b108c10e
DTITLE=Eddy Arnold - Standards By
DYEAR=1997
DGENRE=Country
TTITLE0=Scarlet ribbons  (for her hair)
TTITLE1=Daddy's little girl
TTITLE2=The way you look tonight
TTITLE3=My way
TTITLE4=Tou'll never know
TTITLE5=Georgia on my mind
TTITLE6=The nearness of you
TTITLE7=I'll never smile again
TTITLE8=Smile
TTITLE9=As time goes by
TTITLE10=I don't want to set the world on fire
TTITLE11=The glory of love
TTITLE12=I don't want to walk without you
TTITLE13=I only have eyes for you
EXTD=YEAR: 1997
EXTT0=
EXTT1=
EXTT2=
EXTT3=
EXTT4=
EXTT5=
EXTT6=
EXTT7=
EXTT8=
EXTT9=
EXTT10=
EXTT11=
EXTT12=
EXTT13=
PLAYORDER=
